<?xml version="1.0" standalone="no"?>
<!DOCTYPE svg PUBLIC "-//W3C//DTD SVG 1.1//EN" "http://www.w3.org/Graphics/SVG/1.1/DTD/svg11.dtd">
<svg width="1024px" height="1024px" version="1.1" xmlns="http://www.w3.org/2000/svg" xmlns:xlink="http://www.w3.org/1999/xlink" xml:space="preserve" style="fill-rule:evenodd;clip-rule:evenodd;stroke-miterlimit:1.41421;">
    <g id="svg5148">
        <g id="g7354">
            <g>
                <path d="M847.189,837.088C671.143,1024.93 376.154,1034.49 188.311,858.449C0.468375,682.404 -9.09521,387.414 166.95,199.572C342.996,11.7288 637.985,2.1652 825.828,178.211C1013.67,354.256 1023.23,649.246 847.189,837.088Z" style="fill:white;"/>
            </g>
            <path id="path7026" d="M565.862,31.1624C565.862,31.1624 557.205,22.9185 546.054,22.207C534.903,21.4941 528.33,28.2939 528.33,28.2939C528.33,28.2939 520.755,38.0344 509.583,38.1851C498.41,38.3371 490.453,28.6676 490.453,28.6676C477.751,17.9816 468.404,30.727 468.404,30.727C468.404,30.727 465.822,38.3328 454.72,39.5888C443.618,40.8464 437.127,33.7049 437.127,33.7049C437.127,33.7049 426.745,28.181 415.764,30.2422C404.782,32.3016 400.125,40.6391 400.125,40.6391C400.125,40.6391 393.276,49.4703 382.483,52.3517C371.689,55.2346 363.811,50.5443 363.811,50.5443C363.811,50.5443 352.748,46.6739 342.19,50.3231C331.632,53.9713 328.302,63.0224 328.302,63.0224C328.302,63.0224 322.9,72.5172 312.756,77.1899C302.613,81.8639 293.928,78.3349 293.928,78.3349C293.928,78.3349 282.212,76.0854 272.425,81.4619C262.637,86.8371 260.742,96.0636 260.742,96.0636C260.742,96.0636 256.875,106.415 247.51,112.493C238.146,118.572 229.097,116.405 229.097,116.405C229.097,116.405 217.308,116.019 208.387,122.729C199.465,129.438 198.988,138.947 198.988,138.947C198.988,138.947 196.776,149.899 188.376,157.248C179.978,164.597 170.847,163.887 170.847,163.887C170.847,163.887 158.928,165.241 151.256,173.342C143.583,181.442 144.567,190.771 144.567,190.771C144.567,190.771 143.983,201.745 136.926,210.383C129.869,219.023 120.56,219.691 120.56,219.691C120.56,219.691 109.151,222.876 102.723,231.99C96.2925,241.103 98.7114,250.266 98.7114,250.266C98.7114,250.266 99.9278,261.334 94.1998,270.901C88.473,280.469 79.4972,282.553 79.4972,282.553C79.4972,282.553 68.8421,287.444 63.8054,297.39C58.7675,307.336 62.6909,316.148 62.6909,316.148C62.6909,316.148 65.4498,326.714 61.4363,337.113C57.4242,347.512 48.7378,351.016 48.7378,351.016C48.7378,351.016 38.7622,357.566 35.5312,368.233C32.299,378.899 37.4207,386.821 37.4207,386.821C37.4207,386.821 41.9131,396.894 39.5161,407.777C37.1205,418.661 29.1495,423.448 29.1495,423.448C29.1495,423.448 20.4364,431.451 18.8575,442.482C17.2775,453.512 23.6131,460.582 23.6131,460.582C23.6131,460.582 29.7015,469.864 28.9957,480.984C28.2912,492.104 21.1975,498.056 21.1975,498.056C21.1975,498.056 13.8842,507.302 14.0187,518.444C14.1517,529.586 21.5206,535.604 21.5206,535.604C21.5206,535.604 28.9962,543.845 30.0053,554.942C31.016,566.039 24.9372,572.995 24.9372,572.995C24.9372,572.995 19.1832,583.236 21.0267,594.226C22.8688,605.216 31.1389,610.027 31.1389,610.027C31.1389,610.027 39.8623,617.022 42.5487,627.838C45.2367,638.653 40.4084,646.414 40.4084,646.414C40.4084,646.414 36.3463,657.381 39.8323,667.967C43.3169,678.554 52.3778,682.009 52.3778,682.009C52.3778,682.009 61.8474,687.524 66.3822,697.708C70.9186,707.891 67.2722,716.489 67.2722,716.489C67.2722,716.489 64.8908,728.126 70.1507,737.957C75.4094,747.788 84.658,749.79 84.658,749.79C84.658,749.79 95.0287,753.754 101.002,763.171C106.976,772.587 104.722,781.559 104.722,781.559C104.722,781.559 104.261,793.28 110.901,802.242C117.539,811.205 127.118,811.738 127.118,811.738C127.118,811.738 138.104,814.042 145.38,822.499C152.657,830.955 151.895,840.005 151.895,840.005C151.895,840.005 153.173,851.855 161.212,859.594C169.251,867.333 178.638,866.43 178.638,866.43C178.638,866.43 189.681,867.082 198.265,874.216C206.849,881.348 207.436,890.614 207.436,890.614C207.436,890.614 210.536,901.974 219.599,908.492C228.66,915.011 237.899,912.678 237.899,912.678C237.899,912.678 249.036,911.563 258.559,917.393C268.082,923.221 270.087,932.152 270.087,932.152C270.087,932.152 274.864,942.815 284.771,947.969C294.676,953.125 303.578,949.303 303.578,949.303C303.578,949.303 314.23,946.675 324.596,950.834C334.963,954.991 338.35,963.695 338.35,963.695C338.35,963.695 344.758,973.713 355.397,977.121C366.035,980.53 374.067,975.564 374.067,975.564C374.067,975.564 384.262,971.271 395.125,973.883C405.987,976.493 410.625,984.536 410.625,984.536C410.625,984.536 418.468,993.39 429.494,995.194C440.521,996.999 447.738,990.845 447.738,990.845C447.738,990.845 457.184,985.003 468.316,985.965C479.448,986.926 485.242,994.155 485.242,994.155C485.242,994.155 494.322,1001.7 505.494,1001.85C516.667,1001.99 522.885,994.833 522.885,994.833C522.885,994.833 531.355,987.664 542.506,986.965C553.658,986.265 560.466,992.563 560.466,992.563C560.466,992.563 570.57,998.688 581.641,997.176C592.711,995.665 597.792,987.654 597.792,987.654C597.792,987.654 605.085,979.27 616.007,976.917C626.928,974.562 634.597,979.743 634.597,979.743C634.597,979.743 645.477,984.213 656.199,981.077C666.922,977.943 670.732,969.201 670.732,969.201C670.732,969.201 676.678,959.737 687.136,955.814C697.593,951.889 705.892,955.777 705.892,955.777C705.892,955.777 717.276,958.543 727.426,953.885C737.578,949.229 739.996,939.872 739.996,939.872C739.996,939.872 744.436,929.851 754.088,924.237C763.739,918.62 772.709,921.289 772.709,921.289C772.709,921.289 784.56,922.369 793.786,916.084C803.013,909.799 803.998,900.41 803.998,900.41C803.998,900.41 806.818,889.687 815.559,882.747C824.3,875.805 833.491,877.073 833.491,877.073C833.491,877.073 845.217,876.275 853.45,868.742C861.684,861.209 861.198,851.652 861.198,851.652C861.198,851.652 862.329,840.514 869.989,832.402C877.647,824.288 886.748,824.078 886.748,824.078C886.748,824.078 898.422,821.551 905.289,812.761C912.157,803.972 910.259,794.755 910.259,794.755C910.259,794.755 909.729,783.738 915.921,774.463C922.112,765.187 931.281,763.608 931.281,763.608C931.281,763.608 942.267,759.3 947.781,749.609C953.296,739.918 949.954,731.006 949.954,731.006C949.954,731.006 947.622,720.088 952.391,710.011C957.159,699.934 965.823,696.962 965.823,696.962C965.823,696.962 975.918,691.033 979.941,680.637C983.964,670.242 979.131,661.843 979.131,661.843C979.131,661.843 975.296,651.597 978.247,640.849C981.196,630.102 989.47,625.744 989.47,625.744C989.47,625.744 998.717,618.22 1000.85,607.282C1002.99,596.345 997.083,588.977 997.083,588.977C997.083,588.977 991.593,579.414 992.867,568.344C994.14,557.274 1001.59,551.704 1001.59,551.704C1001.59,551.704 1009.48,542.86 1009.92,531.726C1010.37,520.593 1003.37,514.203 1003.37,514.203C1003.37,514.203 996.429,505.594 995.984,494.46C995.538,483.326 1002.02,476.685 1002.02,476.685C1002.02,476.685 1008.41,466.743 1007.14,455.674C1005.86,444.604 997.946,439.364 997.946,439.364C997.946,439.364 989.703,431.917 987.568,420.98C985.431,410.043 990.777,402.506 990.777,402.506C990.777,402.506 995.461,391.738 992.511,380.991C989.562,370.243 980.837,366.295 980.837,366.295C980.837,366.295 971.44,360.213 967.678,349.721C963.916,339.229 967.912,331.035 967.912,331.035C967.912,331.035 971.016,319.458 966.241,309.384C961.468,299.31 952.398,296.828 952.398,296.828C952.398,296.828 942.374,292.296 936.86,282.604C931.345,272.913 934.103,264.016 934.103,264.016C934.103,264.016 935.278,252.244 929.085,242.969C922.894,233.693 913.465,232.617 913.465,232.617C913.465,232.617 902.697,229.718 895.836,220.923C888.975,212.129 890.299,203.021 890.299,203.021C890.299,203.021 889.602,191.342 882.138,183.05C874.676,174.756 865.036,175.183 865.036,175.183C865.036,175.183 854.151,173.889 845.918,166.355C837.684,158.822 837.597,149.477 837.597,149.477C837.597,149.477 835.148,137.852 826.403,130.916C817.66,123.978 808.378,125.803 808.378,125.803C808.378,125.803 797.279,126.269 788.05,119.987C778.821,113.706 777.331,104.563 777.331,104.563C777.331,104.563 773.125,93.6021 763.479,87.9772C753.835,82.3512 744.833,85.6068 744.833,85.6068C744.833,85.6068 733.839,87.7995 723.804,82.8985C713.768,77.9989 710.899,69.3455 710.899,69.3455C710.899,69.3455 705.043,58.8956 694.585,54.9719C684.128,51.047 675.884,55.5516 675.884,55.5516C675.884,55.5516 665.535,59.2198 654.811,56.0898C644.087,52.9609 639.862,44.6367 639.862,44.6367C639.862,44.6367 632.497,35.2931 621.574,32.9452C610.652,30.5958 603.148,36.3272 603.148,36.3272C603.148,36.3272 593.441,41.5892 582.37,40.077C571.299,38.5663 565.897,30.8435 565.897,30.8435" style="fill:url(#tag1);fill-rule:nonzero;stroke-width:2.31px;stroke:black;"/>
            <g id="path7998">
                <path d="M978.691,513.531C978.691,767.546 770.051,973.48 512.676,973.48C255.301,973.48 46.6603,767.558 46.6603,513.531C46.6603,259.515 255.301,53.5811 512.676,53.5811C770.051,53.5811 978.691,259.503 978.691,513.531Z" style="fill:url(#tag2);fill-rule:nonzero;stroke-width:2.46px;stroke:black;"/>
            </g>
            <path id="path4129" d="M388.559,324.472L372.859,325.225L374.525,317.587L368.999,311.926L377.014,311.115L377.33,310.532C377.197,310.359 377.064,310.184 376.93,310.012C372.777,304.66 368.661,299.134 363.431,294.799C359.716,292.624 380.117,300.154 389.583,301.879Z" style="fill:black;fill-opacity:0.12549;fill-rule:nonzero;stroke-width:2.31px;stroke:black;"/>
            <path id="path7759" d="M141.961,498.406C148.901,498.589 155.477,495.262 162.266,493.827C165.159,493.215 168.089,492.78 170.968,492.109C173.114,491.609 175.145,490.415 177.35,490.392C180.539,490.359 183.673,491.508 186.633,492.682C188.079,493.255 189.345,495.743 190.694,494.971C192.199,494.109 190.766,491.535 190.694,489.82C190.597,487.524 188.697,484.775 190.114,482.951C191.429,481.258 194.467,482.545 196.495,481.806C199.015,480.887 202.471,480.265 203.457,477.799C204.198,475.946 205.198,472.075 201.717,472.075C198.236,472.075 193.274,472.538 189.533,470.931C187.398,470.013 184.988,468.55 184.312,466.351C182.978,462.011 188.874,457.594 187.793,453.186C186.634,448.458 179.842,446.794 177.93,442.31C176.803,439.666 178.162,436.478 177.35,433.724C176.674,431.428 175.105,429.484 173.869,427.428C172.227,424.696 168.791,422.586 168.648,419.414C168.444,414.895 172.709,407.966 175.03,407.393C177.35,406.821 180.719,405.065 180.251,402.814C179.513,399.268 173.476,399.458 169.808,399.38C168.401,399.35 166.978,401.199 165.747,400.524C164.517,399.85 164.263,397.869 164.587,396.518C165.31,393.495 171.473,392.715 170.969,389.649C170.65,387.71 167.734,386.911 165.747,386.787C163.669,386.657 161.635,387.875 159.946,389.076C157.274,390.976 155.586,393.953 153.564,396.518C152.542,397.813 150.601,398.884 150.663,400.524C150.719,402.013 153.632,402.47 153.564,403.959C153.453,406.385 149.837,407.18 148.343,409.11C147.396,410.333 145.493,411.67 146.022,413.117C146.583,414.65 149.309,413.9 150.663,414.834C152.124,415.843 153.801,417.115 154.144,418.841C154.497,420.617 152.698,422.206 152.404,423.993C152.249,424.934 151.895,426.043 152.404,426.855C153.086,427.944 155.447,427.367 155.885,428.572C156.528,430.341 152.138,432.478 153.564,433.724C156.098,435.935 159.006,429.463 162.266,428.572C163.198,428.317 164.413,427.975 165.167,428.572C166.558,429.673 166.133,431.975 166.327,433.724C166.517,435.431 166.327,436.586 166.327,438.875C166.327,441.165 166.032,444.234 166.327,446.889C166.522,448.638 167.851,450.318 167.488,452.041C166.952,454.581 165.011,456.863 162.846,458.337C161.032,459.573 158.563,459.386 156.465,460.054C154.893,460.556 152.48,460.276 151.823,461.772C150.825,464.048 155.212,466.207 154.724,468.64C154.247,471.023 151.777,472.863 149.503,473.792C147.18,474.741 143.431,471.78 141.961,473.792C141.246,474.771 142.111,476.546 143.121,477.227C146.318,479.382 150.873,476.252 154.724,476.654C157.71,476.966 161.597,476.595 163.426,478.944C164.369,480.154 163.674,482.016 163.426,483.523C163.23,484.714 163.203,486.182 162.266,486.957C158.222,490.305 151.357,486.987 146.602,489.247C143.027,490.946 136.97,493.455 137.9,497.261C138.229,498.611 140.553,498.368 141.961,498.406Z" style="fill:black;fill-opacity:0.12549;fill-rule:nonzero;stroke-width:2.31px;stroke:black;"/>
            <path id="path7761" d="M108.779,469.288C106.608,466.039 108.234,460.514 111.1,457.84C114.08,455.059 119.367,457.33 123.283,456.123C124.934,455.614 127.647,455.518 127.924,453.833C128.143,452.502 126.247,451.575 125.024,450.971C122.577,449.764 118.457,452.046 116.901,449.826C114.873,446.933 116.44,441.724 119.222,439.523C121.032,438.09 124.082,438.552 126.184,439.523C127.552,440.155 127.62,442.592 129.085,442.958C131.104,443.462 133.718,442.37 134.886,440.668C136.404,438.456 132.972,434.543 134.886,432.654C136.664,430.9 139.973,432.122 142.428,432.654C145.133,433.24 148.478,433.787 149.97,436.089C151.534,438.499 151.245,442.104 149.97,444.675C149.002,446.629 145.718,446.727 144.749,448.681C143.305,451.595 144.858,455.171 144.749,458.412C144.652,461.279 146.049,464.81 144.169,466.998C141.985,469.54 137.62,468.643 134.306,469.288C129.503,470.223 124.697,471.696 119.802,471.578C116.048,471.487 110.846,472.381 108.779,469.288Z" style="fill:black;fill-opacity:0.12549;fill-rule:nonzero;stroke-width:2.31px;stroke:black;"/>
            <path id="path7745" d="M186.794,612.612C185.498,612.659 184.265,613.46 183.313,614.33C182.486,615.085 181.563,616.079 181.573,617.192C181.588,618.992 183.124,620.56 184.474,621.771C186.713,623.78 189.724,626.722 192.596,625.778C194.647,625.103 194.669,622.025 195.496,620.054C195.964,618.939 197.166,617.717 196.657,616.619C195.177,613.43 190.347,612.484 186.794,612.613Z" style="fill:black;fill-opacity:0.12549;fill-rule:nonzero;stroke-width:2.31px;stroke:black;"/>
            <path id="path7747" d="M248.553,600.549C250.607,598.716 249.897,595.239 250.294,592.535C250.656,590.073 251.749,587.427 250.874,585.094C250.589,584.334 249.892,583.686 249.134,583.376C246.99,582.5 244.103,582.106 242.172,583.376C240.08,584.752 239.682,587.798 239.271,590.245C238.796,593.075 238.395,596.349 239.851,598.831C240.55,600.022 241.977,600.796 243.332,601.121C245.034,601.529 247.255,601.707 248.553,600.549Z" style="fill:black;fill-opacity:0.12549;fill-rule:nonzero;stroke-width:2.31px;stroke:black;"/>
            <path id="path7749" d="M249.711,610.246C249.841,611.461 247.8,611.955 247.39,613.108C246.686,615.088 247.65,617.321 247.39,619.405C247.196,620.966 246.23,621.694 246.23,623.984C246.23,626.273 246.595,628.474 245.07,629.708C243.574,630.917 241.202,629.708 239.268,629.708C237.914,629.708 235.207,632.57 235.207,629.708C235.207,626.846 235.118,624.745 235.207,622.267C235.304,619.59 235.147,616.855 235.787,614.253C236.482,611.429 237.058,608.16 239.268,606.239C240.325,605.321 241.95,604.813 243.329,605.094C246.021,605.643 249.422,607.549 249.711,610.246Z" style="fill:black;fill-opacity:0.12549;fill-rule:nonzero;stroke-width:2.31px;stroke:black;"/>
            <path id="path7755" d="M303.47,638.463C306.003,641.097 303.349,645.737 302.89,649.339C302.644,651.269 303.155,653.718 301.73,655.063C299.891,656.797 296.731,656.235 294.188,656.207C290.85,656.171 287.546,655.358 284.325,654.49C281.137,653.631 277.457,653.282 275.043,651.056C273.335,649.482 272.762,646.982 272.142,644.759C271.677,643.094 270.822,641.174 271.562,639.608C272.151,638.361 273.302,637.318 275.043,637.318C276.783,637.318 272.142,636.173 282.005,637.318C291.868,638.463 289.338,638.272 293.028,638.463C296.504,638.643 301.075,635.971 303.471,638.463Z" style="fill:black;fill-opacity:0.12549;fill-rule:nonzero;stroke-width:2.31px;stroke:black;"/>
            <path id="path7757" d="M391.234,655.465C391.151,659.38 386.752,662.491 383.112,664.052C380.097,665.344 376.537,664.052 373.249,664.052C370.155,664.052 366.287,666.914 363.967,664.052C361.646,661.189 358.005,660.788 358.745,658.328C359.6,655.488 364.528,656.725 367.448,656.038C371.1,655.179 375.57,654.893 378.471,653.748C381.371,652.604 384.715,650.503 387.753,651.459C389.452,651.993 391.272,653.707 391.234,655.465Z" style="fill:black;fill-opacity:0.12549;fill-rule:nonzero;stroke-width:2.31px;stroke:black;"/>
            <path id="path7757-8" d="M389.948,681.445C389.864,685.359 385.465,688.471 381.826,690.031C378.811,691.324 375.251,690.031 371.963,690.031C368.869,690.031 365.001,692.893 362.681,690.031C360.36,687.169 356.719,686.768 357.459,684.307C358.314,681.467 363.241,682.704 366.162,682.017C369.814,681.158 374.284,680.873 377.185,679.728C380.085,678.583 383.428,676.482 386.467,677.438C388.166,677.972 389.986,679.686 389.948,681.445Z" style="fill:black;fill-opacity:0.12549;fill-rule:nonzero;stroke-width:2.31px;stroke:black;"/>
            <path id="path7745-1" d="M286.828,661.999C285.532,662.045 284.299,662.846 283.347,663.716C282.52,664.472 281.596,665.466 281.607,666.578C281.622,668.378 283.158,669.947 284.507,671.158C286.747,673.167 289.758,676.109 292.629,675.164C294.68,674.49 294.703,671.411 295.53,669.44C295.998,668.325 297.199,667.103 296.69,666.006C295.211,662.816 290.381,661.871 286.828,661.999Z" style="fill:black;fill-opacity:0.12549;fill-rule:nonzero;stroke-width:2.31px;stroke:black;"/>
            <path id="path7763" d="M305.451,417.072C303.621,419.994 304.522,424.066 305.451,427.376C305.752,428.448 306.068,430.138 307.191,430.238C309.239,430.418 310.364,427.488 311.252,425.658C312.695,422.688 313.11,419.219 312.993,415.927C312.965,415.141 313.137,413.967 312.413,413.638C310.055,412.568 306.815,414.895 305.451,417.072Z" style="fill:black;fill-opacity:0.12549;fill-rule:nonzero;stroke-width:2.31px;stroke:black;"/>
            <path id="path7769" d="M257.196,443.875C256.136,446.156 256.599,449.502 258.356,451.316C259.038,452.019 260.313,452.17 261.257,451.888C262.566,451.497 263.635,450.273 264.158,449.026C264.824,447.44 264.734,445.495 264.158,443.875C263.748,442.722 263.058,441.218 261.837,441.013C260.039,440.71 257.956,442.238 257.196,443.875Z" style="fill:black;fill-opacity:0.12549;fill-rule:nonzero;stroke-width:2.31px;stroke:black;"/>
            <path id="path7769-0" d="M268.874,443.875C267.814,446.156 268.276,449.502 270.034,451.316C270.716,452.019 271.991,452.17 272.935,451.888C274.244,451.497 275.312,450.273 275.836,449.026C276.502,447.44 276.412,445.495 275.836,443.875C275.426,442.722 274.736,441.218 273.515,441.013C271.717,440.71 269.634,442.238 268.874,443.875Z" style="fill:black;fill-opacity:0.12549;fill-rule:nonzero;stroke-width:2.31px;stroke:black;"/>
            <path id="path5532" d="M102.117,671.259C100.443,665.629 97.0662,660 113.81,654.37C128.623,653.502 137.94,655.688 137.195,663.464C133.756,669.976 130.991,673.038 126.801,675.156C112.98,673.857 109.773,672.558 102.117,671.259Z" style="fill:black;fill-opacity:0.12549;fill-rule:nonzero;stroke-width:2.31px;stroke:black;"/>
            <path id="path5536" d="M390.54,932.39C507.55,984.442 930.346,949.683 955.039,517.312C966.537,315.675 789.542,26.4038 386.63,91.841L387.929,273.725L388.478,273.885C388.879,267.961 343.641,262.73 344.117,268.651C343.177,266.252 339.717,264.792 339.793,262.221C339.829,261.032 341.475,260.456 341.966,259.37C342.634,257.891 343.934,255.873 342.915,254.604C342.266,253.796 341.197,253.607 340.047,253.688L340.047,253.688C338.896,253.769 337.663,254.121 336.651,254.375C334.409,254.938 332.461,256.235 330.555,257.601L330.998,257.684L325.008,262.887L326.062,270.629L319.081,266.716L315.959,268.152C313.633,269.926 311.317,271.698 308.936,273.397C305.991,275.497 302.664,277.125 300.014,279.578C293.549,285.559 288.308,292.773 283.372,300.035C280.969,303.571 278.186,307.089 277.108,311.211C276.565,313.286 278.11,315.74 277.108,317.641C276.204,319.356 272.754,319.092 272.299,320.971C271.982,322.278 274.218,323.34 274.218,324.53C274.218,325.719 275.188,328.573 275.188,329.524C275.188,330.476 272.177,329.893 271.328,330.96C270.931,331.461 271.047,332.22 271.096,332.854C271.186,334.004 272.751,335.265 272.046,336.184C270.836,337.76 267.792,335.235 266.034,336.184C262.766,337.947 262.513,342.751 260.002,345.466C256.915,348.803 252.716,350.942 249.161,353.79C243.847,358.047 235.924,360.569 233.489,366.88C232.883,368.452 235.106,370.447 234.206,371.875C233.671,372.725 231.981,372.056 231.317,372.812C229.819,374.514 230.316,377.225 230.115,379.471C229.944,381.371 228.747,383.845 230.115,385.194C231.531,386.592 234.865,383.657 236.126,385.194C236.591,385.762 235.858,386.633 235.662,387.338C235.325,388.545 235.109,389.833 234.438,390.896C234.139,391.371 233.663,391.715 233.236,392.083C232.631,392.603 231.47,392.741 231.317,393.519C231.139,394.423 232.001,395.343 232.751,395.891C233.554,396.478 235.116,395.773 235.662,396.599C236.687,398.15 234.617,400.221 234.692,402.072C234.768,403.955 234.466,406.613 236.126,407.546C238.384,408.815 241.445,406.816 243.614,405.402C244.568,404.78 245.058,403.651 245.786,402.78C246.583,401.826 247.29,400.789 248.19,399.929C250.163,398.045 252.915,397.003 254.687,394.934C256.218,393.146 255.692,388.644 258.062,388.753C259.717,388.829 259.432,391.734 260.002,393.269C260.466,394.517 260.488,395.951 261.204,397.078C262.079,398.454 263.89,399.06 264.811,400.407C267.313,404.069 268.062,408.637 269.641,412.769C270.458,414.907 271.187,417.078 272.046,419.2C273.18,422.005 275.191,425.859 275.674,427.524C276.156,429.189 278.219,430.309 278.795,432.04C279.524,434.23 279.048,437.998 279.048,438.949C279.048,439.901 279.314,440.64 279.997,440.843C281.071,441.163 282.223,440.055 282.908,439.178C284.382,437.292 283.72,434.406 284.828,432.29C285.353,431.287 286.181,430.456 287,429.668C288.313,428.404 290.299,427.824 291.345,426.338C292.257,425.042 292.537,423.382 292.779,421.822C293.35,418.14 292.92,414.369 292.779,410.646C292.698,408.498 291.416,406.183 292.294,404.216C292.871,402.923 294.58,402.511 295.669,401.594C296.834,400.612 297.887,399.506 299.044,398.514C299.907,397.773 300.916,397.192 301.701,396.37C302.927,395.087 304.293,393.761 304.844,392.083C305.214,390.955 305.628,389.423 304.844,388.525C304.473,388.099 303.492,388.728 303.157,388.275C302.871,387.889 303.321,387.333 303.389,386.86C303.479,386.223 303.669,385.586 303.621,384.945C303.577,384.371 303.595,383.66 303.157,383.28C301.877,382.169 299.519,383.496 298.095,382.572C296.676,381.653 296.037,379.852 295.437,378.285C294.948,377.007 294.706,375.614 294.72,374.248C294.738,372.629 295.473,371.09 295.669,369.482C295.889,367.676 295.475,365.795 295.922,364.03C296.374,362.241 297.682,360.765 298.326,359.035C298.759,357.876 298.828,356.601 299.297,355.455C299.916,353.941 300.802,352.539 301.701,351.168C302.79,349.509 304.205,348.074 305.308,346.423C306.022,345.354 306.77,344.284 307.248,343.094C307.765,341.808 307.635,340.314 308.219,339.056C308.673,338.076 309.46,337.279 310.138,336.434C311.131,335.196 312.788,334.356 313.281,332.855C313.579,331.947 313.5,330.836 313.028,330.004C312.831,329.657 312.273,329.631 312.057,329.296C311.401,328.275 311.177,326.936 311.34,325.737C311.485,324.677 312.222,323.774 312.796,322.865C313.918,321.089 315.708,319.744 316.655,317.871C317.177,316.839 317.131,315.595 317.605,314.541C317.91,313.86 318.48,313.319 318.807,312.647C319.655,310.905 319.215,308.378 320.747,307.174C321.887,306.278 323.666,306.988 325.092,306.695C325.885,306.532 326.641,305.746 327.412,305.987C329.835,306.744 330.694,309.834 332.074,311.94C333.558,314.204 335.382,316.436 335.934,319.078C336.324,320.946 335.882,322.921 335.449,324.78C334.446,329.084 332.422,333.1 330.618,337.142C329.314,340.063 328.135,343.09 326.295,345.716C324.549,348.207 321.309,349.623 320.03,352.376C318.211,356.291 317.857,360.968 318.575,365.216C319.627,371.445 321.717,378.481 326.78,382.344C329.497,384.417 333.605,385.182 336.904,384.238C340.066,383.332 341.397,379.409 344.117,377.578C347.502,375.3 351.215,373.247 355.212,372.354C357.248,371.9 359.407,372.081 361.476,372.354C365.109,372.834 369.3,372.855 372.086,375.206C373.286,376.219 373.695,377.948 374.026,379.472C374.363,381.025 374.832,382.862 374.026,384.238C371.61,388.363 366.031,389.795 361.476,391.376C359.483,392.068 357.316,392.14 355.212,392.333C350.407,392.775 343.649,388.99 340.743,392.791C339.944,393.836 341.112,395.433 341.713,396.599C342.854,398.812 345.687,399.988 346.543,402.323C347.309,404.41 346.061,406.604 346.543,408.982C347.026,411.36 349.266,410.713 350.403,411.833C352.674,414.07 357.617,416.597 356.183,419.429C355.535,420.707 353.247,419.757 351.838,419.429C350.093,419.023 348.746,417.563 347.029,417.057C344.39,416.278 341.577,416.045 338.824,416.099C335.735,416.16 331.737,415.27 329.67,417.535C327.625,419.776 328.925,423.563 329.185,426.567C329.492,430.132 329.889,433.875 331.589,437.035C333.242,440.109 337.894,441.295 338.824,444.652C339.215,446.065 338.496,447.619 337.853,448.939C336.52,451.68 334.363,454.021 332.074,456.057C330.087,457.824 327.96,459.885 325.325,460.344C321.754,460.965 318.288,458.584 314.715,457.971C309.454,457.069 304.142,455.73 298.812,456.057C292.2,456.462 281.462,460.822 279.534,460.822C277.606,460.822 271.338,463.195 269.41,463.195C267.481,463.195 265.101,465.467 263.124,464.631C259.35,463.034 258.308,457.955 256.86,454.163C255.649,450.991 254.648,447.55 254.941,444.173C255.175,441.472 257.05,439.156 257.83,436.557C258.671,433.757 260.157,430.896 259.75,428.003C259.423,425.685 258.491,422.879 256.375,421.822C254.348,420.81 251.441,421.411 249.625,422.759C246.806,424.851 245.659,428.827 245.301,432.29C245.002,435.195 246.656,437.977 247.221,440.844C247.968,444.634 247.949,448.597 249.161,452.269C250.607,456.649 256.627,460.179 255.426,464.631C254.978,466.289 252.269,466.228 251.081,467.482C249.311,469.35 249.415,472.78 247.221,474.141C245.312,475.326 242.726,474.54 240.471,474.62C239.024,474.671 237.536,474.949 236.126,474.62C233.333,473.968 230.295,468.66 228.428,470.812C226.631,472.882 233.679,474.781 233.237,477.471C232.887,479.598 229.708,480.011 227.943,481.279C224.407,483.82 221.179,486.841 217.333,488.896C215.094,490.093 211.857,491.297 208.221,492.476C201.93,494.973 197.925,498.269 188.922,499.677C188.879,499.71 188.798,499.751 188.669,499.801C185.919,500.875 181.358,502.244 178.756,503.631C175.502,505.364 172.993,508.357 169.602,509.812C168.241,510.395 166.722,511.004 165.257,510.769C162.487,510.324 160.748,507.223 158.044,506.482C156.337,506.014 154.483,506.238 152.728,506.482C151.569,506.643 150.254,506.701 149.354,507.439C147.697,508.798 146.332,511.02 146.464,513.141C146.535,514.28 147.614,515.14 148.383,515.992C150.208,518.014 152.538,519.531 154.669,521.237C157.512,523.514 160.942,525.164 163.338,527.896C164.184,528.862 164.73,530.06 165.257,531.226C166.706,534.432 168.192,537.733 168.632,541.216C168.891,543.266 168.168,545.494 168.168,547.397C168.168,549.299 168.044,552.595 167.198,555.014C165.975,558.507 163.771,561.648 161.418,564.524C159.204,567.232 157.082,570.68 153.699,571.662C151.971,572.164 150.106,571.225 148.383,570.705C145.704,569.896 143.269,568.444 140.685,567.375C137.493,566.055 134.321,564.67 131.046,563.567C128.832,562.821 126.553,562.278 124.296,561.673C119.965,560.512 115.727,558.78 111.261,558.343C108.381,558.062 105.464,558.466 102.592,558.822C100.964,559.024 98.4856,558.305 97.7623,559.759C96.6534,561.986 101.063,563.937 101.137,566.418C101.209,568.832 99.7582,571.178 98.2474,573.077C96.7596,574.948 93.6774,575.308 92.4682,577.365C91.8176,578.471 92.258,579.923 91.983,581.173C91.412,583.772 91.0766,586.579 89.5786,588.79C88.8821,589.818 87.6723,590.396 86.6889,591.162C84.7932,592.64 82.2256,593.464 80.8886,595.449C78.6909,598.713 78.7641,603.009 77.999,606.854C77.7801,607.954 77.6872,609.075 77.5138,610.184C77.0659,613.047 76.4528,615.885 76.0796,618.758C75.8542,620.492 74.8302,622.404 75.5945,623.982C77.8423,628.622 87.644,630.632 88.6081,632.535C89.5723,634.438 93.0596,637.448 95.8427,639.194C97.3069,640.113 98.987,640.704 100.673,641.109C103.967,641.9 107.411,641.907 110.797,642.066C115.13,642.271 119.473,642.009 123.811,642.066C129.598,642.142 135.607,644.106 141.169,642.524C143.946,641.734 145.841,639.137 148.383,637.779C150.535,636.629 153.05,636.197 155.132,634.928C157.467,633.506 159.007,630.16 161.418,629.684C163.828,629.208 161.862,625.888 161.882,623.981C161.908,621.438 160.834,618.842 161.418,616.364C162.004,613.877 163.823,611.831 165.257,609.705C166.717,607.539 167.825,604.862 170.087,603.524C171.762,602.533 173.455,603.516 175.866,602.567C178.276,601.615 180.898,599.205 183.586,597.822C185.756,596.705 188.061,595.862 190.335,594.971C192.082,594.286 194.607,594.612 195.629,593.056C196.857,591.189 195.007,588.616 195.165,586.396C195.327,584.133 194.882,581.246 196.6,579.737C199.131,577.513 203.335,578.856 206.724,578.8C209.301,578.758 211.886,579.575 214.444,579.258C219.131,578.677 224.037,577.616 227.942,574.992C229.834,573.721 230.701,571.375 232.287,569.748C234.812,567.159 236.933,563.459 240.471,562.609C243.049,561.99 246.559,562.459 248.191,564.524C249.868,566.647 247.151,570.11 248.191,572.599C248.712,573.846 250.115,574.515 251.08,575.471C252.042,576.423 253.006,577.373 253.97,578.322C255.417,579.746 256.986,581.056 258.315,582.588C259.739,584.229 260.846,586.115 262.175,587.832C263.422,589.444 264.437,591.301 266.035,592.577C267.711,593.916 270.152,594.093 271.814,595.449C273.842,597.105 274.513,600.077 276.623,601.63C278.421,602.953 280.83,603.169 282.909,604.003C284.043,604.458 285.27,604.76 286.283,605.439C287.221,606.067 287.848,607.06 288.688,607.811C290.379,609.324 292.093,610.833 293.982,612.098C296.721,613.933 299.982,614.939 302.672,616.843C304.613,618.218 307.001,619.453 307.966,621.609C308.548,622.91 308.14,624.464 307.966,625.875C307.725,627.826 306.95,629.677 306.532,631.599C306.155,633.329 304.413,635.462 305.561,636.822C306.178,637.552 307.488,636.822 308.451,636.822C310.862,636.822 310.888,635.45 311.826,634.45C313.736,632.412 315.647,630.038 316.171,627.312C316.535,625.418 316.096,623.323 315.201,621.609C314.577,620.415 312.889,619.975 312.311,618.758C311.556,617.169 310.854,614.984 311.826,613.514C312.381,612.674 313.709,612.423 314.716,612.556C315.865,612.709 316.515,614.08 317.605,614.471C320.496,615.507 324.359,617.299 326.78,615.428C327.674,614.738 327.755,613.099 327.244,612.099C325.434,608.552 320.304,608.052 316.656,606.375C313.839,605.081 310.403,604.948 307.966,603.046C305.524,601.139 305.238,597.191 302.672,595.45C299.263,593.136 294.215,594.574 290.607,592.578C287.442,590.826 284.623,588.138 282.908,584.982C281.36,582.131 282.612,578.269 280.968,575.471C280.866,575.297 281.229,573.984 280.881,572.216C278.696,569.986 278.987,570.783 276.888,569.602C275.503,567.976 274.207,565.531 274.009,565.248C272.446,563.019 270.167,563.899 270.359,561.195C270.5,559.21 272.381,557.747 273.249,555.95C274.518,553.322 274.073,549.341 276.623,547.875C278.864,546.588 281.891,547.999 284.343,548.833C286.117,549.436 287.468,550.912 289.173,551.684C291.483,552.729 294.435,552.476 296.408,554.056C297.062,560.247 296.599,561.874 300.331,559.696C301.237,561.65 302.048,563.688 303.157,565.482C304.247,567.245 304.999,569.3 306.532,570.705C308.27,572.298 310.774,572.812 312.796,574.035C317.127,576.653 321.253,579.595 325.325,582.588C328.626,585.015 333.645,586.358 334.964,590.205C335.6,592.06 333.435,593.951 333.53,595.908C333.668,598.765 335.418,601.318 336.42,604.003C337.192,606.074 337.922,608.164 338.824,610.184C339.839,612.455 340.789,614.788 342.199,616.844C344.371,620.01 349.436,623.515 349.919,625.418C350.401,627.321 348.655,627.63 348.948,628.748C349.519,630.917 352.907,631.422 353.779,633.493C354.518,635.248 353.043,637.438 353.779,639.195C354.821,641.684 356.985,644.018 359.558,644.918C362.45,645.93 366.021,645.415 368.712,643.961C370.519,642.984 371.783,641.073 372.572,639.195C373.127,637.873 372.976,636.358 373.057,634.929C373.165,633.024 373.598,631.037 373.057,629.206C372.471,627.223 370.581,625.846 369.682,623.982C368.59,621.718 368.215,619.174 367.278,616.844C366.428,614.732 364.605,612.923 364.367,610.663C364.146,608.559 363.849,605.309 365.822,604.482C367.549,603.758 368.785,607.508 370.652,607.333C372.576,607.152 373.378,604.595 374.976,603.524C377.357,601.93 380.51,601.561 382.696,599.716C383.746,598.83 383.779,596.783 385.1,596.386C386.416,595.991 390.96,596.603 390.395,594.922Z" style="fill:black;fill-opacity:0.12549;fill-rule:nonzero;stroke-width:2.31px;stroke:black;"/>
            <g id="path3019">
                <path d="M174.317,326.465L165.932,321.767L157.183,325.796L159.204,316.618L152.546,309.802L162.181,308.828L166.814,300.588L170.747,309.163L180.269,310.885L173.066,317.159Z" style="fill:black;fill-opacity:0.313726;fill-rule:nonzero;stroke-width:2.32px;stroke:black;"/>
            </g>
            <g id="path3019-8">
                <path d="M211.982,275.021L203.597,270.323L194.848,274.351L196.869,265.174L190.211,258.358L199.846,257.384L204.479,249.143L208.412,257.718L217.934,259.441L210.731,265.715Z" style="fill:black;fill-opacity:0.313726;fill-rule:nonzero;stroke-width:2.32px;stroke:black;"/>
            </g>
            <g id="path3019-3">
                <path d="M246.892,245.62L238.507,240.922L229.759,244.951L231.779,235.773L225.121,228.958L234.756,227.984L239.389,219.743L243.322,228.318L252.844,230.041L245.641,236.315Z" style="fill:black;fill-opacity:0.313726;fill-rule:nonzero;stroke-width:2.32px;stroke:black;"/>
            </g>
            <g id="path3019-6">
                <path d="M282.718,211.616L274.333,206.918L265.584,210.946L267.605,201.769L260.947,194.953L270.582,193.979L275.215,185.738L279.148,194.313L288.67,196.036L281.467,202.31Z" style="fill:black;fill-opacity:0.313726;fill-rule:nonzero;stroke-width:2.32px;stroke:black;"/>
            </g>
            <g id="path3019-2">
                <path d="M318.536,190.498L310.151,185.8L301.403,189.828L303.423,180.651L296.765,173.835L306.4,172.861L311.033,164.62L314.966,173.195L324.488,174.918L317.285,181.192Z" style="fill:black;fill-opacity:0.313726;fill-rule:nonzero;stroke-width:2.32px;stroke:black;"/>
            </g>
            <g id="path3019-30">
                <path d="M355.293,174.884L346.908,170.186L338.16,174.215L340.18,165.037L333.522,158.222L343.157,157.248L347.79,149.007L351.723,157.582L361.245,159.305L354.042,165.579Z" style="fill:black;fill-opacity:0.313726;fill-rule:nonzero;stroke-width:2.32px;stroke:black;"/>
            </g>
            <g id="path3019-5">
                <path d="M174.317,699.437L165.932,694.739L157.183,698.767L159.204,689.59L152.546,682.774L162.181,681.8L166.814,673.559L170.747,682.134L180.269,683.857L173.066,690.131Z" style="fill:black;fill-opacity:0.313726;fill-rule:nonzero;stroke-width:2.32px;stroke:black;"/>
            </g>
            <g id="path3019-0">
                <path d="M211.982,749.029L203.597,744.331L194.848,748.36L196.869,739.182L190.211,732.366L199.846,731.392L204.479,723.152L208.412,731.727L217.934,733.449L210.731,739.723Z" style="fill:black;fill-opacity:0.313726;fill-rule:nonzero;stroke-width:2.32px;stroke:black;"/>
            </g>
            <g id="path3019-31">
                <path d="M243.216,788.538L234.831,783.841L226.083,787.869L228.104,778.691L221.446,771.876L231.08,770.902L235.714,762.661L239.647,771.236L249.168,772.959L241.965,779.233Z" style="fill:black;fill-opacity:0.313726;fill-rule:nonzero;stroke-width:2.32px;stroke:black;"/>
            </g>
            <g id="path3019-35">
                <path d="M282.718,822.517L274.333,817.82L265.584,821.848L267.605,812.67L260.947,805.855L270.582,804.881L275.215,796.64L279.148,805.215L288.67,806.938L281.467,813.212Z" style="fill:black;fill-opacity:0.313726;fill-rule:nonzero;stroke-width:2.32px;stroke:black;"/>
            </g>
            <g id="path3019-9">
                <path d="M321.314,850.992L312.929,846.294L304.181,850.322L306.201,841.145L299.543,834.329L309.178,833.355L313.811,825.114L317.744,833.689L327.266,835.412L320.063,841.686Z" style="fill:black;fill-opacity:0.313726;fill-rule:nonzero;stroke-width:2.32px;stroke:black;"/>
            </g>
            <g id="path3019-22">
                <path d="M355.293,869.383L346.908,864.685L338.16,868.714L340.18,859.536L333.522,852.72L343.157,851.746L347.79,843.506L351.723,852.081L361.245,853.803L354.042,860.077Z" style="fill:black;fill-opacity:0.313726;fill-rule:nonzero;stroke-width:2.32px;stroke:black;"/>
            </g>
            <path id="rect3882-67" d="M346.179,664.341C346.179,663.9 345.821,663.542 345.38,663.542L342.055,663.542C341.614,663.542 341.256,663.9 341.256,664.341L341.256,821.655C341.256,822.096 341.614,822.454 342.055,822.454L345.38,822.454C345.821,822.454 346.179,822.096 346.179,821.655L346.179,664.341Z" style="fill:black;fill-opacity:0.313726;stroke-width:2.31px;stroke:black;"/>
            <path id="rect3882-67-8" d="M310.348,661.563C310.348,661.122 309.99,660.764 309.549,660.764L306.224,660.764C305.783,660.764 305.425,661.122 305.425,661.563L305.425,799.585C305.425,800.026 305.783,800.384 306.224,800.384L309.549,800.384C309.99,800.384 310.348,800.026 310.348,799.585L310.348,661.563Z" style="fill:black;fill-opacity:0.313726;stroke-width:2.31px;stroke:black;"/>
            <path id="rect3882-67-5" d="M275.443,661.563C275.443,661.122 275.085,660.764 274.644,660.764L271.319,660.764C270.878,660.764 270.52,661.122 270.52,661.563L270.52,777.536C270.52,777.977 270.878,778.335 271.319,778.335L274.644,778.335C275.085,778.335 275.443,777.977 275.443,777.536L275.443,661.563Z" style="fill:black;fill-opacity:0.313726;stroke-width:2.31px;stroke:black;"/>
            <path id="rect3882-67-4" d="M239.612,660.663C239.612,660.222 239.254,659.864 238.813,659.864L235.488,659.864C235.047,659.864 234.689,660.222 234.689,660.663L234.689,742.646C234.689,743.088 235.047,743.446 235.488,743.446L238.813,743.446C239.254,743.446 239.612,743.088 239.612,742.646L239.612,660.663Z" style="fill:black;fill-opacity:0.313726;stroke-width:2.31px;stroke:black;"/>
            <path id="rect3882-67-2" d="M203.781,661.563C203.781,661.122 203.423,660.764 202.982,660.764L199.657,660.764C199.216,660.764 198.858,661.122 198.858,661.563L198.858,704.045C198.858,704.487 199.216,704.844 199.657,704.844L202.982,704.844C203.423,704.844 203.781,704.487 203.781,704.045L203.781,661.563Z" style="fill:black;fill-opacity:0.313726;stroke-width:2.31px;stroke:black;"/>
            <path id="rect3882-67-53" d="M168.876,712.108C168.876,711.666 168.518,711.308 168.077,711.308L164.752,711.308C164.311,711.308 163.953,711.666 163.953,712.108L163.953,783.066C163.953,783.508 164.311,783.865 164.752,783.865L168.077,783.865C168.518,783.865 168.876,783.508 168.876,783.066L168.876,712.108Z" style="fill:black;fill-opacity:0.313726;stroke-width:2.31px;stroke:black;"/>
            <path id="rect3882-67-6" d="M204.707,759.874C204.707,759.432 204.349,759.074 203.908,759.074L200.583,759.074C200.142,759.074 199.784,759.432 199.784,759.874L199.784,820.729C199.784,821.17 200.142,821.528 200.583,821.528L203.908,821.528C204.349,821.528 204.707,821.17 204.707,820.729L204.707,759.874Z" style="fill:black;fill-opacity:0.313726;stroke-width:2.31px;stroke:black;"/>
            <path id="rect3882-67-7" d="M239.612,796.605C239.612,796.163 239.254,795.806 238.813,795.806L235.488,795.806C235.047,795.806 234.689,796.163 234.689,796.605L234.689,850.111C234.689,850.552 235.047,850.91 235.488,850.91L238.813,850.91C239.254,850.91 239.612,850.552 239.612,850.111L239.612,796.605Z" style="fill:black;fill-opacity:0.313726;stroke-width:2.31px;stroke:black;"/>
            <path id="rect3882-67-3" d="M278.195,832.436C278.195,831.994 277.837,831.637 277.396,831.637L274.072,831.637C273.63,831.637 273.272,831.994 273.272,832.436L273.272,871.242C273.272,871.683 273.63,872.041 274.072,872.041L277.396,872.041C277.837,872.041 278.195,871.683 278.195,871.242L278.195,832.436Z" style="fill:black;fill-opacity:0.313726;stroke-width:2.31px;stroke:black;"/>
            <path id="rect3882-67-0" d="M313.1,858.158C313.1,857.717 312.742,857.359 312.301,857.359L308.977,857.359C308.535,857.359 308.177,857.717 308.177,858.158L308.177,896.046C308.177,896.487 308.535,896.845 308.977,896.845L312.301,896.845C312.742,896.845 313.1,896.487 313.1,896.046L313.1,858.158Z" style="fill:black;fill-opacity:0.313726;stroke-width:2.31px;stroke:black;"/>
            <path id="rect3882-67-87" d="M348.005,878.376C348.005,877.934 347.647,877.576 347.206,877.576L343.882,877.576C343.44,877.576 343.082,877.934 343.082,878.376L343.082,909.833C343.082,910.274 343.44,910.632 343.882,910.632L347.206,910.632C347.647,910.632 348.005,910.274 348.005,909.833L348.005,878.376Z" style="fill:black;fill-opacity:0.313726;stroke-width:2.31px;stroke:black;"/>
            <path id="rect3882-67-06" d="M239.689,255.179C239.689,254.737 239.331,254.38 238.89,254.38L235.566,254.38C235.124,254.38 234.766,254.737 234.766,255.179L234.766,347.726C234.766,348.167 235.124,348.525 235.566,348.525L238.89,348.525C239.331,348.525 239.689,348.167 239.689,347.726L239.689,255.179Z" style="fill:black;fill-opacity:0.313726;stroke-width:2.31px;stroke:black;"/>
            <path id="rect3882-67-00" d="M206.07,285.377C206.07,284.935 205.712,284.577 205.271,284.577L201.947,284.577C201.505,284.577 201.147,284.935 201.147,285.377L201.147,348.068C201.147,348.51 201.505,348.867 201.947,348.867L205.271,348.867C205.712,348.867 206.07,348.51 206.07,348.068L206.07,285.377Z" style="fill:black;fill-opacity:0.313726;stroke-width:2.31px;stroke:black;"/>
            <path id="rect3882-67-63" d="M169.802,329.49C169.802,329.049 169.444,328.691 169.003,328.691L165.678,328.691C165.237,328.691 164.879,329.049 164.879,329.49L164.879,349.464C164.879,349.906 165.237,350.264 165.678,350.264L169.003,350.264C169.444,350.264 169.802,349.906 169.802,349.464L169.802,329.49Z" style="fill:black;fill-opacity:0.313726;stroke-width:2.31px;stroke:black;"/>
            <path id="rect3882-67-69" d="M170.265,242.215C170.265,241.773 169.907,241.416 169.466,241.416L166.141,241.416C165.7,241.416 165.342,241.773 165.342,242.215L165.342,280.102C165.342,280.544 165.7,280.902 166.141,280.902L169.466,280.902C169.907,280.902 170.265,280.544 170.265,280.102L170.265,242.215Z" style="fill:black;fill-opacity:0.313726;stroke-width:2.31px;stroke:black;"/>
            <path id="rect3882-67-694" d="M206.533,196.275C206.533,195.834 206.175,195.476 205.734,195.476L202.41,195.476C201.968,195.476 201.61,195.834 201.61,196.275L201.61,227.272C201.61,227.713 201.968,228.071 202.41,228.071L205.734,228.071C206.175,228.071 206.533,227.713 206.533,227.272L206.533,196.275Z" style="fill:black;fill-opacity:0.313726;stroke-width:2.31px;stroke:black;"/>
            <path id="rect3882-67-694-6" d="M240.075,170.784C240.075,170.343 239.717,169.985 239.276,169.985L235.951,169.985C235.51,169.985 235.152,170.343 235.152,170.784L235.152,201.781C235.152,202.222 235.51,202.58 235.951,202.58L239.276,202.58C239.717,202.58 240.075,202.222 240.075,201.781L240.075,170.784Z" style="fill:black;fill-opacity:0.313726;stroke-width:2.31px;stroke:black;"/>
            <path id="rect3882-67-694-2" d="M278.195,139.558C278.195,139.116 277.837,138.758 277.396,138.758L274.072,138.758C273.63,138.758 273.272,139.116 273.272,139.558L273.272,170.554C273.272,170.996 273.63,171.353 274.072,171.353L277.396,171.353C277.837,171.353 278.195,170.996 278.195,170.554L278.195,139.558Z" style="fill:black;fill-opacity:0.313726;stroke-width:2.31px;stroke:black;"/>
            <path id="rect3882-67-694-7" d="M311.274,120.729C311.274,120.287 310.916,119.93 310.475,119.93L307.15,119.93C306.709,119.93 306.351,120.287 306.351,120.729L306.351,148.51C306.351,148.952 306.709,149.31 307.15,149.31L310.475,149.31C310.916,149.31 311.274,148.952 311.274,148.51L311.274,120.729Z" style="fill:black;fill-opacity:0.313726;stroke-width:2.31px;stroke:black;"/>
            <path id="rect3882-67-694-28" d="M350.32,106.942C350.32,106.5 349.962,106.143 349.521,106.143L346.197,106.143C345.755,106.143 345.397,106.5 345.397,106.942L345.397,132.429C345.397,132.87 345.755,133.228 346.197,133.228L349.521,133.228C349.962,133.228 350.32,132.87 350.32,132.429L350.32,106.942Z" style="fill:black;fill-opacity:0.313726;stroke-width:2.31px;stroke:black;"/>
            <path id="rect3882-67-694-64" d="M347.542,186.861C347.542,186.419 347.184,186.061 346.743,186.061L343.419,186.061C342.977,186.061 342.619,186.419 342.619,186.861L342.619,248.174C342.619,248.615 342.977,248.973 343.419,248.973L346.743,248.973C347.184,248.973 347.542,248.615 347.542,248.174L347.542,186.861Z" style="fill:black;fill-opacity:0.313726;stroke-width:2.31px;stroke:black;"/>
            <path id="rect3882-67-694-26" d="M312.174,201.548C312.174,201.107 311.816,200.749 311.375,200.749L308.051,200.749C307.609,200.749 307.251,201.107 307.251,201.548L307.251,249.542C307.251,249.983 307.609,250.341 308.051,250.341L311.375,250.341C311.816,250.341 312.174,249.983 312.174,249.542L312.174,201.548Z" style="fill:black;fill-opacity:0.313726;stroke-width:2.31px;stroke:black;"/>
            <path id="rect3882-67-694-1" d="M279.121,225.444C279.121,225.002 278.763,224.645 278.322,224.645L274.998,224.645C274.556,224.645 274.198,225.002 274.198,225.444L274.198,287.217C274.198,287.659 274.556,288.016 274.998,288.016L278.322,288.016C278.763,288.016 279.121,287.659 279.121,287.217L279.121,225.444Z" style="fill:black;fill-opacity:0.313726;stroke-width:2.31px;stroke:black;"/>
            <path id="path5835" d="M673.51,288.744L658.8,310.769C653.555,319.798 646.29,320.589 638.624,319.932L518.295,315.354L450.291,511.969L456.721,517.435C506.376,497.898 592.12,479.515 592.648,584.555C592.802,615.197 550.317,684.542 510.9,682.862C494.862,682.179 473.418,668.611 471.432,653.441C468.507,631.102 468.249,596.976 423.604,605.696C404.902,609.348 388.596,632.331 403.428,663.571C410.023,677.461 438.235,690.255 458.571,697.493C473.994,702.982 490.912,705.532 507.202,703.923C537.461,700.936 575.229,688.289 593.613,674.585C604.201,666.691 642.524,632.619 650.523,590.023L657.918,589.139C658.881,627.936 660.191,696.681 735.085,703.039C748.544,704.182 810.237,676.633 831.543,651.595C863.269,614.311 888.839,572.885 902.279,524.833C915.382,477.988 927.506,443.045 914.176,375.966C910.516,357.552 894.355,320.332 867.312,313.51C828.019,303.598 789.575,320.912 773.668,334.651C760.39,346.119 703.699,393.22 682.676,455.946C671.214,490.147 663.644,514.871 660.651,540.428L653.336,540.428C657.91,510.182 632.848,488.212 610.092,472.424C579.089,450.917 539.12,448.367 497.157,457.794L532.041,368.652L665.233,370.5L694.654,298.8ZM825.35,329.416C826.83,329.396 828.291,329.587 829.691,330.059C879.381,346.821 856.138,457.199 841.587,518.395C827.3,578.482 782.143,686.718 747.943,678.194C698.755,665.933 720.449,547.239 735.966,484.392C749.716,428.701 795.253,329.841 825.351,329.416Z" style="fill:black;fill-opacity:0.313726;fill-rule:nonzero;stroke-width:2.31px;stroke:black;"/>
            <path id="path7998-6" d="M700.518,742.895C698.871,745.978 697.81,749.435 697.472,753.187C697.289,756.631 697.573,759.78 698.226,762.624C699.375,756.158 700.146,749.574 700.518,742.895Z" style="fill:url(#tag3);fill-rule:nonzero;"/>
            <path id="path9175" d="M730.047,728.002C716.112,728.007 705.134,738.354 703.967,753.207C703.158,770.672 712.631,780.647 723.219,780.833C734.895,780.713 744.004,774.344 748.207,756.132C747.45,755.777 751.56,732.264 730.047,728.003ZM726.919,730.98C727.73,730.954 728.568,731 729.439,731.135C742.994,737.736 740.9,743.297 740.784,755.201C738.7,765.642 734.623,779.044 722.922,777.066C722.922,777.066 707.475,776.374 710.881,751.951C713.967,738.852 719.077,731.226 726.919,730.98Z" style="fill:black;fill-opacity:0.313726;fill-rule:nonzero;stroke-width:2.31px;stroke:black;"/>
            <path id="path3067" d="M554.622,732.169L550.935,732.363C550.868,732.384 550.787,732.407 550.722,732.428C549.555,732.794 554.271,732.158 554.622,732.312C554.622,732.299 554.622,732.169 554.622,732.169Z" style="fill:black;fill-opacity:0.12549;fill-rule:nonzero;stroke-width:2.31px;stroke:black;"/>
            <path id="path7994-4" d="M585.36,739.243L585.32,733.037L585.411,728.523C585.423,727.773 549.011,728.153 549.011,728.153C549.011,728.153 547.765,729.14 547.631,729.827C547.49,730.544 547.748,731.411 548.321,731.919C548.947,732.475 550.852,732.547 550.852,732.547L554.762,732.338C554.762,732.338 553.864,759.678 548.781,772.303C548.437,773.156 547.87,773.954 547.171,774.604C546.591,775.143 545.813,775.474 545.1,775.859C543.685,776.625 540.39,776.487 540.729,777.952C541.189,779.936 545.174,778.272 547.401,778.37C550.083,778.489 555.452,778.579 555.452,778.579L563.274,778.579L572.246,778.998L578.457,778.579L582.598,776.069C582.598,776.069 583.401,773.706 583.748,772.512C584.091,771.334 584.824,770.165 584.668,768.955C584.569,768.18 584.247,767.272 583.518,766.863C583.127,766.643 582.499,766.603 582.138,766.863C580.59,767.973 581.871,770.614 580.758,772.093C580.073,773.003 577.767,773.976 577.767,773.976L574.776,775.232L568.335,776.069L559.363,776.069L557.523,775.232L555.682,773.14L556.603,768.327L559.133,754.936L561.434,754.099L572.476,754.099L573.396,754.936L573.396,760.585L575.006,762.05L576.617,760.585L576.157,752.635L579.147,746.776L577.997,744.893L577.077,744.893L575.006,748.031L573.396,749.915L571.325,750.751L565.344,751.379L561.894,751.379L560.283,750.961L563.734,732.13L569.715,731.293L576.386,731.293L580.527,731.502L581.677,734.013L582.298,739.468C583.318,740.276 584.338,739.788 585.358,739.244Z" style="fill:black;fill-opacity:0.313726;fill-rule:nonzero;stroke-width:2.31px;stroke:black;"/>
            <path id="path7996" d="M597.552,729.134L605.685,729.356L612.599,729.282L616.259,729.282L616.747,730.17L616.503,731.057C616.503,731.057 615.852,731.131 615.445,731.131L613.9,731.131L611.379,731.575L609.915,732.463L609.671,732.981L609.183,735.644L604.628,763.457L604.303,767.452L604.466,770.781L605.767,773.222L610.159,775.737L616.422,776.181L621.546,775.071L624.637,772.63L627.239,769.671L629.191,765.084L630.737,757.391L632.607,746.813L633.665,741.635C633.719,739.116 633.692,738.98 633.746,737.566L633.909,734.977L633.827,733.349L633.665,731.944L632.526,731.5L630.167,731.5L628.866,731.13L628.622,730.094L628.704,729.281L629.924,729.133L634.885,729.207L640.66,729.28L643.506,729.354L643.587,730.612L643.262,731.352C642.367,731.27 641.473,731.31 640.578,731.425C638.884,731.82 638.869,733.437 638.138,734.532L635.779,743.927L631.387,766.267L627.727,774.257C625.313,776.815 622.603,778.029 619.756,778.621C616.503,779.365 613.25,779.723 609.996,779.287C606.553,778.955 603.796,777.686 601.212,776.18C599.445,774.766 598.186,772.581 597.064,770.188C597.252,764.508 597.612,758.88 598.447,753.396L601.619,734.384C602.095,732.544 601.766,731.54 600.724,731.277L596.576,731.055L596.495,730.02Z" style="fill:black;fill-opacity:0.313726;fill-rule:nonzero;stroke-width:2.31px;stroke:black;"/>
            <path id="path9170" d="M658.668,729.031C657.851,729.566 657.34,730.245 657.743,731.335L662.454,732.591L655.963,773.487C655.907,773.838 656.025,774.263 655.793,774.548C655.579,774.811 655.395,774.707 654.811,774.962C653.598,775.493 651.567,776.425 650.498,777.189C650.143,777.442 650.752,778.445 651.195,778.522C659.269,779.932 669.607,778.58 669.955,778.885L670.282,777.163L664.304,776.011C663.537,775.863 662.732,774.775 662.924,774.017C664.641,767.213 666.063,753.836 667.635,753.628L670.282,754.664C671.707,755.366 672.032,755.872 672.346,755.816C672.346,755.816 677.319,773.109 684.772,777.785C687.598,779.558 691.744,779.81 695.006,778.833C695.701,778.624 696.755,778.13 696.628,777.474C696.483,776.721 695.068,776.879 694.294,776.581L689.028,774.548L678.111,754.249C693.173,747.285 693.712,735.676 682.125,729.873L658.668,729.032ZM669.955,778.883L669.942,778.935C669.975,778.912 669.973,778.898 669.955,778.883ZM674.396,731.644C675.31,731.657 676.24,731.742 676.844,731.761C678.503,731.812 680.209,731.81 681.555,732.693C683.099,733.706 683.845,735.29 684.203,736.991C684.571,738.741 684.216,740.572 683.861,742.324C683.423,744.482 683.061,746.81 681.669,748.603C680.532,750.067 678.789,751.176 676.958,751.839C675.345,752.423 673.51,752.463 671.777,752.37C670.598,752.306 668.224,752.702 668.332,751.632C669.115,743.897 671.55,734.561 671.435,732.693C671.379,731.778 672.872,731.622 674.396,731.644Z" style="fill:black;fill-opacity:0.313726;fill-rule:nonzero;stroke-width:2.31px;stroke:black;"/>
            <path id="path6400" d="M505.389,793.053C506.458,799.476 512.305,798.429 512.738,793.053L520.088,766.871C525.642,753.69 516.933,754.703 513.198,760.44C458.932,754.649 438.598,762.436 430.979,767.789C405.527,785.672 399.68,804.495 400.205,823.828C401.254,862.493 432.921,871.771 447.516,874.812C457.617,876.917 474.661,876.788 488.396,873.893C493.825,872.749 497.225,870.328 500.798,866.084C507.752,857.825 513.2,835.31 513.2,835.31C511.331,831.183 508.474,831.993 505.391,833.932C498.704,848.849 488.574,864.526 475.075,864.706C475.075,864.706 432.806,867.707 427.764,826.123C423.599,791.756 451.116,768.243 476.912,765.951C506.037,763.363 505.849,781.568 505.849,781.568Z" style="fill:black;fill-opacity:0.313726;fill-rule:nonzero;stroke-width:2.31px;stroke:black;"/>
            <path id="path7994-4-8" d="M583.713,811.779L583.651,802.553L583.793,795.84C583.814,794.724 526.826,795.29 526.826,795.29C526.826,795.29 524.876,796.758 524.666,797.779C524.446,798.845 524.849,800.135 525.746,800.89C526.726,801.716 529.707,801.824 529.707,801.824L535.827,801.513C535.827,801.513 534.421,842.164 526.466,860.936C525.928,862.206 525.04,863.392 523.946,864.358C523.038,865.16 521.821,865.652 520.705,866.225C518.49,867.362 513.333,867.157 513.864,869.336C514.584,872.286 520.821,869.811 524.306,869.958C528.503,870.135 536.907,870.269 536.907,870.269L549.149,870.269L563.191,870.891L572.912,870.269L579.393,866.536C579.393,866.536 580.65,863.023 581.194,861.247C581.729,859.496 582.877,857.757 582.634,855.958C582.478,854.806 581.975,853.456 580.833,852.847C580.221,852.52 579.239,852.462 578.673,852.847C576.25,854.497 578.256,858.425 576.513,860.625C575.441,861.978 571.832,863.425 571.832,863.425L567.152,865.291L557.07,866.536L543.028,866.536L540.148,865.291L537.268,862.18L538.708,855.025L542.668,835.114L546.269,833.869L563.551,833.869L564.991,835.114L564.991,843.514L567.512,845.692L570.032,843.514L569.312,831.692L573.993,822.981L572.193,820.181L570.752,820.181L567.512,824.847L564.991,827.647L561.751,828.892L552.39,829.825L546.989,829.825L544.469,829.203L549.869,801.202L559.231,799.957L569.672,799.957L576.153,800.268L577.953,804.002L578.924,812.113C580.521,813.315 582.117,812.589 583.714,811.78Z" style="fill:black;fill-opacity:0.313726;fill-rule:nonzero;stroke-width:2.31px;stroke:black;"/>
            <path id="path6420" d="M585.771,865.178L592.661,864.719C594.652,864.513 596.642,867.255 598.632,860.126L613.331,814.652C615.64,804.424 607.743,803.475 597.714,803.628L597.714,796.279L625.733,796.279L653.752,851.857L661.561,813.734C664.539,803.838 660.509,806.142 657.886,804.088L647.781,804.088L647.781,797.198L686.364,796.739L685.905,803.629C682.092,804.482 677.593,801.221 674.881,808.681L662.509,861.077L667.113,867.971C669.8,871.381 671.24,874.168 666.653,873.942L649.659,874.401L619.342,818.824L608.778,856.946C604.312,866.672 610.531,864.465 615.209,864.296L627.61,864.755L627.61,872.104L585.351,873.023Z" style="fill:black;fill-opacity:0.313726;fill-rule:nonzero;stroke-width:2.31px;stroke:black;"/>
            <path id="path6422" d="M693.727,872.046L693.727,866.075L705.662,863.323C708.486,864.359 709.99,860.119 711.633,856.433L725.872,808.664C730.816,797.286 720.042,800.971 714.849,800.856C707.849,804.431 700.942,809.157 698.772,818.769C690.76,821.78 691.579,818.483 691.882,815.554L697.394,800.396C699.421,798.041 699.163,794.544 705.662,794.425L766.292,794.884C771.121,794.775 771.94,799.012 770.767,803.625L768.589,816.013C764.009,823.377 762.082,818.806 759.861,815.554L761.239,807.746C761.099,799.909 744.792,798.298 741.488,806.368L727.249,858.272C724.558,864.496 731.388,862.785 735.517,863.325C741.124,866.693 742.557,870.062 743.326,873.43Z" style="fill:black;fill-opacity:0.313726;fill-rule:nonzero;stroke-width:2.31px;stroke:black;"/>
        </g>
    </g>
    <defs>
        <linearGradient id="tag1" x1="0" y1="0" x2="1" y2="0" gradientUnits="userSpaceOnUse" gradientTransform="matrix(998.379,0,0,998.379,12.7825,511.885)"><stop offset="0%" style="stop-color:rgb(234,189,97);stop-opacity:1"/><stop offset="100%" style="stop-color:rgb(238,205,115);stop-opacity:0.776471"/></linearGradient>
        <linearGradient id="tag2" x1="0" y1="0" x2="1" y2="0" gradientUnits="userSpaceOnUse" gradientTransform="matrix(932.378,0,0,1530.38,46.4643,513.531)"><stop offset="0%" style="stop-color:rgb(208,194,123);stop-opacity:1"/><stop offset="100%" style="stop-color:rgb(208,194,123);stop-opacity:0.776471"/></linearGradient>
        <linearGradient id="tag3" x1="0" y1="0" x2="1" y2="0" gradientUnits="userSpaceOnUse" gradientTransform="matrix(390.214,0,0,390.214,310.64,733.625)"><stop offset="0%" style="stop-color:rgb(230,230,230);stop-opacity:1"/><stop offset="100%" style="stop-color:rgb(204,204,204);stop-opacity:0.745098"/></linearGradient>
    </defs>
</svg>
