<?xml version="1.0" standalone="no"?>
<!DOCTYPE svg PUBLIC "-//W3C//DTD SVG 1.1//EN" "http://www.w3.org/Graphics/SVG/1.1/DTD/svg11.dtd">
<svg width="2480px" height="2480px" version="1.1" xmlns="http://www.w3.org/2000/svg" xmlns:xlink="http://www.w3.org/1999/xlink" xml:space="preserve" style="fill-rule:evenodd;clip-rule:evenodd;stroke-linejoin:round;stroke-miterlimit:1.41421;">
    <g>
        <g id="Layer1">
            <g>
                <path d="M2407.45,1563.07C2407.45,1639.97 2407.39,1716.87 2407.28,1793.77C2407.26,1797.88 2407.18,1801.99 2407.01,1806.09C2406.65,1814.91 2405.92,1823.72 2404.84,1832.48C2402.1,1854.58 2397.05,1876.39 2389.78,1897.45C2382.25,1919.27 2372.34,1940.25 2360.29,1959.94C2349.41,1977.74 2336.78,1994.46 2322.66,2009.82C2303.56,2030.59 2281.71,2048.84 2257.86,2063.93C2236.44,2077.48 2213.4,2088.48 2189.39,2096.61C2168.91,2103.53 2147.74,2108.37 2126.29,2111.03C2117.87,2112.07 2109.41,2112.78 2100.93,2113.16C2096.49,2113.35 2092.04,2113.45 2087.6,2113.47C1966.5,2113.7 1845.4,2113.71 1724.3,2113.65C1724.09,2054.49 1723.99,1995.32 1723.99,1936.16C1845.16,1936.3 1966.33,1936.29 2087.5,1935.71C2088.12,1935.7 2088.73,1935.7 2089.35,1935.68C2091.51,1935.64 2093.66,1935.56 2095.81,1935.42C2099.74,1935.17 2103.66,1934.76 2107.56,1934.19C2117.15,1932.79 2126.6,1930.4 2135.7,1927.06C2142.35,1924.63 2148.81,1921.7 2155.02,1918.3C2162.96,1913.96 2170.48,1908.86 2177.45,1903.1C2187.75,1894.6 2196.86,1884.68 2204.43,1873.69C2211.46,1863.47 2217.16,1852.35 2221.32,1840.67C2224.62,1831.37 2226.95,1821.73 2228.25,1811.95C2228.82,1807.73 2229.19,1803.49 2229.38,1799.24C2229.46,1797.39 2229.5,1795.53 2229.52,1793.67C2229.89,1716.74 2230.07,1639.81 2230.08,1562.88C2289.2,1562.87 2348.33,1562.94 2407.45,1563.07Z" style="fill:rgb(0,97,255);"/>
            </g>
            <g>
                <path d="M687.657,1440.96C622.535,1440.92 557.415,1440.88 492.294,1440.88C487.527,1440.87 482.761,1440.78 477.999,1440.57C469.523,1440.19 461.062,1439.48 452.643,1438.44C430.861,1435.74 409.363,1430.79 388.594,1423.69C364.921,1415.6 342.212,1404.71 321.07,1391.34C299.386,1377.62 279.358,1361.29 261.542,1342.83C245.503,1326.2 231.259,1307.85 219.144,1288.18C206.526,1267.69 196.227,1245.79 188.515,1223C181.585,1202.52 176.749,1181.34 174.09,1159.88C173.047,1151.47 172.338,1143.01 171.962,1134.53C171.765,1130.08 171.666,1125.63 171.645,1121.18C171.394,965.923 171.394,810.665 171.645,655.408C171.666,650.955 171.765,646.504 171.962,642.055C172.338,633.582 173.047,625.124 174.09,616.707C176.829,594.598 181.882,572.781 189.153,551.722C193.943,537.853 199.691,524.314 206.34,511.234C213.648,496.861 222.043,483.042 231.426,469.93C241.496,455.858 252.705,442.603 264.903,430.33C275.517,419.652 286.881,409.721 298.882,400.631C313.267,389.737 328.572,380.057 344.582,371.734C359.335,364.064 374.686,357.548 390.452,352.266C410.963,345.393 432.173,340.622 453.648,338.029C462.071,337.012 470.535,336.33 479.013,335.98C483.124,335.811 487.237,335.726 491.352,335.707C737.082,335.295 982.812,335.295 1228.54,335.707C1233.34,335.729 1238.13,335.843 1242.92,336.071C1250.71,336.441 1258.5,337.094 1266.25,338.029C1287.72,340.621 1308.93,345.393 1329.44,352.264C1345.51,357.65 1361.16,364.318 1376.18,372.184C1393.01,381.001 1409.06,391.32 1424.07,402.974C1434.94,411.419 1445.28,420.562 1454.99,430.329C1467.19,442.602 1478.4,455.86 1488.47,469.934C1497.29,482.255 1505.23,495.199 1512.22,508.642C1519.44,522.524 1525.63,536.936 1530.74,551.725C1538.01,572.782 1543.06,594.597 1545.8,616.705C1546.89,625.463 1547.61,634.267 1547.98,643.085C1548.14,647.193 1548.23,651.303 1548.25,655.414C1548.28,674.675 1548.3,693.937 1548.32,713.2C1489.12,713.16 1429.92,713.141 1370.73,713.142C1370.66,693.929 1370.58,674.717 1370.48,655.506C1370.47,653.185 1370.4,650.866 1370.28,648.548C1370.06,644.459 1369.66,640.379 1369.09,636.323C1367.75,626.71 1365.42,617.236 1362.13,608.102C1358.72,598.598 1354.29,589.465 1348.94,580.899C1342.93,571.281 1335.78,562.38 1327.69,554.435C1320.01,546.891 1311.49,540.208 1302.32,534.563C1293.85,529.342 1284.82,525.011 1275.44,521.674C1266.01,518.319 1256.22,515.973 1246.29,514.68C1242.37,514.17 1238.44,513.821 1234.49,513.633C1232.48,513.538 1230.46,513.488 1228.45,513.471C982.784,512.353 737.11,512.353 491.444,513.471C489.429,513.488 487.416,513.538 485.403,513.633C481.458,513.821 477.521,514.17 473.604,514.68C463.675,515.973 453.884,518.318 444.449,521.674C435.069,525.011 426.047,529.343 417.57,534.564C407.916,540.508 398.973,547.604 390.982,555.645C383.796,562.875 377.378,570.863 371.876,579.445C366.116,588.429 361.367,598.058 357.759,608.102C354.375,617.524 352.001,627.304 350.676,637.227C350.133,641.29 349.766,645.376 349.572,649.47C349.476,651.48 349.425,653.491 349.41,655.503C348.675,810.696 348.675,965.893 349.41,1121.09C349.425,1123.1 349.476,1125.11 349.572,1127.12C349.766,1131.21 350.133,1135.3 350.676,1139.36C351.982,1149.14 354.306,1158.78 357.613,1168.08C360.274,1175.56 363.567,1182.81 367.442,1189.75C371.857,1197.64 377.024,1205.12 382.846,1212.05C390.695,1221.38 399.73,1229.72 409.673,1236.79C420.119,1244.22 431.565,1250.25 443.618,1254.62C452.601,1257.87 461.913,1260.22 471.368,1261.6C475.567,1262.21 479.793,1262.64 484.03,1262.88C486.495,1263.02 488.964,1263.1 491.433,1263.12C491.777,1263.12 492.121,1263.12 492.464,1263.12C557.494,1263.12 622.524,1263.2 687.555,1263.3C687.554,1322.52 687.588,1381.74 687.657,1440.96Z" style="fill:rgb(0,97,255);"/>
            </g>
            <g>
            </g>
            <g>
                <path d="M1344.33,1351.25C1344.33,1329.17 1326.43,1311.27 1304.35,1311.27L1224.38,1311.27C1202.3,1311.27 1184.4,1329.17 1184.4,1351.25L1184.4,1692.81C1184.4,1714.9 1202.3,1732.8 1224.38,1732.8L1304.35,1732.8C1326.43,1732.8 1344.33,1714.9 1344.33,1692.81L1344.33,1351.25Z" style="fill:rgb(61,63,189);"/>
            </g>
            <g>
                <path d="M1778.89,1024.66C1778.89,1002.57 1760.99,984.673 1738.91,984.673L1658.95,984.673C1636.86,984.673 1618.96,1002.57 1618.96,1024.66L1618.96,1715.27C1618.96,1737.35 1636.86,1755.26 1658.95,1755.26L1738.91,1755.26C1760.99,1755.26 1778.89,1737.35 1778.89,1715.27L1778.89,1024.66Z" style="fill:rgb(61,63,189);"/>
            </g>
            <g>
                <path d="M1561.61,1185.39C1561.61,1163.31 1543.71,1145.41 1521.63,1145.41L1441.66,1145.41C1419.58,1145.41 1401.68,1163.31 1401.68,1185.39L1401.68,1692.81C1401.68,1714.9 1419.58,1732.8 1441.66,1732.8L1521.63,1732.8C1543.71,1732.8 1561.61,1714.9 1561.61,1692.81L1561.61,1185.39Z" style="fill:rgb(61,63,189);"/>
            </g>
            <g>
                <path d="M1127.05,1351.25C1127.05,1329.17 1109.15,1311.27 1087.06,1311.27L1007.1,1311.27C985.018,1311.27 967.117,1329.17 967.117,1351.25L967.117,1692.81C967.117,1714.9 985.018,1732.8 1007.1,1732.8L1087.06,1732.8C1109.15,1732.8 1127.05,1714.9 1127.05,1692.81L1127.05,1351.25Z" style="fill:rgb(61,63,189);"/>
            </g>
            <g>
                <path d="M1008.53,1640.82C1253.87,1640.82 1499.2,1641.99 1744.53,1640.82C1745.16,1640.81 1745.78,1640.8 1746.41,1640.79C1748.26,1640.76 1750.11,1640.69 1751.95,1640.58C1755.74,1640.37 1759.51,1640 1763.26,1639.49C1773.03,1638.15 1782.66,1635.81 1791.93,1632.47C1798.32,1630.18 1804.55,1627.42 1810.54,1624.24C1817.02,1620.79 1823.23,1616.85 1829.1,1612.46C1842.1,1602.74 1853.42,1590.82 1862.46,1577.36C1869.13,1567.42 1874.54,1556.65 1878.52,1545.36C1881.8,1536.06 1884.09,1526.41 1885.37,1516.62C1885.88,1512.7 1886.22,1508.76 1886.41,1504.81C1886.51,1502.81 1886.56,1500.8 1886.57,1498.79C1887.28,1343.6 1887.28,1188.39 1886.57,1033.19C1886.56,1031.34 1886.52,1029.48 1886.43,1027.62C1886.25,1023.38 1885.87,1019.14 1885.31,1014.93C1883.98,1005.01 1881.61,995.223 1878.22,985.797C1874.32,974.941 1869.09,964.572 1862.69,954.975C1856.08,945.066 1848.24,935.986 1839.4,928.003C1832.05,921.361 1824.01,915.478 1815.45,910.487C1807.85,906.053 1799.83,902.325 1791.53,899.374C1782.1,896.018 1772.31,893.672 1762.38,892.379C1758.31,891.849 1754.21,891.494 1750.11,891.311C1748.25,891.229 1746.4,891.185 1744.54,891.171C1498.87,889.993 1253.2,889.993 1007.53,891.171C1005.21,891.189 1002.89,891.255 1000.58,891.379C996.488,891.6 992.408,891.994 988.353,892.561C978.739,893.905 969.264,896.24 960.128,899.521C950.626,902.934 941.495,907.369 932.93,912.715C924.77,917.81 917.127,923.728 910.144,930.345C901.916,938.142 894.61,946.912 888.435,956.418C882.387,965.729 877.425,975.744 873.705,986.206C870.398,995.504 868.073,1005.15 866.766,1014.93C866.244,1018.84 865.884,1022.77 865.684,1026.71C865.575,1028.87 865.517,1031.04 865.5,1033.21C864.775,1188.4 864.775,1343.59 865.5,1498.78C865.517,1500.95 865.575,1503.11 865.684,1505.28C865.884,1509.22 866.244,1513.15 866.766,1517.06C868.111,1527.13 870.535,1537.05 873.998,1546.6C876.9,1554.6 880.526,1562.34 884.814,1569.69C889.589,1577.88 895.177,1585.59 901.468,1592.68C909.378,1601.59 918.391,1609.52 928.244,1616.22C938.251,1623.02 949.127,1628.56 960.53,1632.61C969.691,1635.87 979.184,1638.17 988.817,1639.49C993.334,1640.11 997.88,1640.51 1002.44,1640.7C1004.14,1640.77 1005.84,1640.8 1007.55,1640.82C1007.87,1640.82 1008.2,1640.82 1008.53,1640.82ZM1008.41,1818.58C1004.32,1818.58 1000.23,1818.5 996.138,1818.35C987.652,1818.03 979.178,1817.37 970.743,1816.38C949.257,1813.85 928.032,1809.15 907.495,1802.34C881.587,1793.75 856.802,1781.82 833.914,1766.96C809.715,1751.24 787.659,1732.25 768.508,1710.66C754.435,1694.81 741.937,1677.56 731.256,1659.24C720.767,1641.26 712.039,1622.24 705.243,1602.56C697.972,1581.51 692.919,1559.69 690.18,1537.58C689.096,1528.83 688.372,1520.03 688.009,1511.21C687.84,1507.1 687.755,1502.99 687.736,1498.87C687.494,1343.62 687.494,1188.37 687.736,1033.11C687.753,1029.34 687.825,1025.57 687.968,1021.8C688.29,1013.32 688.947,1004.85 689.938,996.416C692.502,974.598 697.314,953.049 704.293,932.219C709.781,915.836 716.602,899.901 724.665,884.62C733.082,868.669 742.848,853.432 753.821,839.119C763.759,826.156 774.687,813.953 786.475,802.646C797.579,791.995 809.447,782.141 821.96,773.186C834.282,764.368 847.228,756.423 860.673,749.433C874.554,742.217 888.965,736.02 903.754,730.914C924.811,723.643 946.626,718.591 968.733,715.851C977.492,714.766 986.295,714.042 995.114,713.679C999.221,713.51 1003.33,713.426 1007.44,713.406C1253.17,713.053 1498.9,713.053 1744.63,713.406C1748.74,713.426 1752.85,713.51 1756.96,713.679C1765.78,714.042 1774.58,714.766 1783.34,715.851C1805.45,718.591 1827.26,723.643 1848.32,730.914C1863.11,736.02 1877.52,742.217 1891.4,749.434C1904.85,756.423 1917.79,764.368 1930.11,773.184C1943.92,783.069 1956.95,794.05 1969.03,805.988C1980.66,817.474 1991.41,829.847 2001.16,842.964C2011.92,857.451 2021.46,872.844 2029.64,888.934C2036.74,902.89 2042.81,917.368 2047.78,932.214C2054.65,952.725 2059.42,973.934 2062.02,995.41C2062.99,1003.5 2063.66,1011.62 2064.02,1019.76C2064.22,1024.21 2064.32,1028.66 2064.34,1033.11C2064.6,1188.37 2064.6,1343.62 2064.34,1498.87C2064.32,1503.33 2064.22,1507.78 2064.02,1512.23C2063.66,1520.37 2062.99,1528.49 2062.02,1536.58C2059.42,1558.05 2054.65,1579.26 2047.78,1599.77C2042.5,1615.54 2035.98,1630.88 2028.32,1645.64C2019.4,1662.79 2008.93,1679.13 1997.07,1694.4C1988.43,1705.53 1979.05,1716.1 1969.03,1726.01C1956.95,1737.94 1943.92,1748.92 1930.11,1758.8C1918.31,1767.25 1905.94,1774.89 1893.11,1781.66C1878.7,1789.26 1863.72,1795.76 1848.32,1801.07C1826.63,1808.56 1804.13,1813.7 1781.33,1816.38C1773.24,1817.33 1765.12,1817.97 1756.98,1818.31C1752.87,1818.48 1748.75,1818.56 1744.63,1818.58C1499.22,1818.93 1253.81,1818.58 1008.41,1818.58Z" style="fill:rgb(0,255,30);fill-rule:nonzero;"/>
            </g>
        </g>
    </g>
</svg>
